<svg id="Layer_1" data-name="Layer 1" xmlns="http://www.w3.org/2000/svg" viewBox="0 0 4000 4000"><defs><style>.cls-1{fill:#fff;}</style></defs><path class="cls-1" d="M2874.61,3538.91c-137.07,0-296.58-35.65-472.82-107.13-349.84-141.91-732.66-410.22-1077.95-755.51s-613.68-728.2-755.6-1078c-151.47-373.39-142.07-671.84,26.47-840.39a965.33,965.33,0,0,1,145-119l206.55-138c161.06-107.58,415.22,9.77,591.23,273,175.92,263.44,187.1,543.2,26,650.81l-204.6,136.8c-27.53,18.37-42.48,50.58-38.16,82.09,14.17,101.62,85.09,319.5,400.73,635.14s533.4,386.44,635.19,400.62c31.34,4.28,63.54-10.64,81.88-38.11l136.86-204.69c107.59-161,387.35-149.85,650.74,26,263.26,176,380.61,430.23,273,591.27l-137.93,206.46a951.05,951.05,0,0,1-119.06,145.05C3153.18,3494.28,3027.94,3538.91,2874.61,3538.91ZM1080.7,633.07c-16,0-29.36,3.4-39.4,10.1L834.84,781.1a793.63,793.63,0,0,0-119.1,97.76c-228.72,228.73,9.69,956.92,729.14,1676.38,329.46,329.47,692.15,584.43,1021.26,717.92,301.15,122.14,539.88,126.2,655,11.09a779.73,779.73,0,0,0,97.69-119l138-206.57c38.2-57.18-30.77-223.45-225.79-353.87s-375.13-130.42-413.33-73.23l-136.85,204.65c-54.43,81.57-151.73,125.71-247.67,112.59-150.41-21-399.48-115.88-732.75-449.15S1172.12,1817.24,1151.19,1667c-13.22-96.16,31-193.39,112.61-247.88l204.57-136.78c57.21-38.22,57.09-218.24-73.23-413.4C1287.64,708.17,1155.74,633.07,1080.7,633.07Z"/><path class="cls-1" d="M3369.38,2003a85.6,85.6,0,0,1-84.69-74C3197.3,1289.82,2628.15,720.67,1989,633.28a85.59,85.59,0,0,1,23.18-169.6C2723.56,561,3357,1194.41,3454.28,1905.82a85.66,85.66,0,0,1-84.9,97.19Z"/><path class="cls-1" d="M2945.41,2061a85.59,85.59,0,0,1-84.68-74C2799.07,1536,2382,1118.9,1931,1057.25a85.59,85.59,0,0,1,23.19-169.6C2476.2,959,2959,1441.77,3030.31,1963.78a85.66,85.66,0,0,1-84.9,97.19Z"/></svg>