<svg id="Layer_1" data-name="Layer 1" xmlns="http://www.w3.org/2000/svg" viewBox="0 0 4000 4000"><defs><style>.cls-1{fill:#fff;}</style></defs><path class="cls-1" d="M2000,544.63c196.56,0,387.14,38.45,566.43,114.29,173.28,73.29,328.94,178.25,462.67,312s238.69,289.39,312,462.67c75.83,179.29,114.29,369.86,114.29,566.43s-38.46,387.14-114.29,566.43c-73.29,173.28-178.26,328.94-312,462.67s-289.39,238.69-462.67,312c-179.29,75.84-369.87,114.29-566.43,114.29s-387.14-38.45-566.43-114.29c-173.28-73.29-328.94-178.25-462.67-312s-238.69-289.39-312-462.67C583.09,2387.14,544.63,2196.56,544.63,2000s38.46-387.14,114.29-566.43c73.29-173.28,178.26-328.94,312-462.67s289.39-238.69,462.67-312c179.29-75.84,369.87-114.29,566.43-114.29m0-207.15c-918.18,0-1662.52,744.34-1662.52,1662.52S1081.82,3662.52,2000,3662.52,3662.52,2918.18,3662.52,2000,2918.18,337.48,2000,337.48Z"/><path class="cls-1" d="M2410.84,2514.41a103.22,103.22,0,0,1-73.24-30.34L1896.42,2042.9V1052.4a103.58,103.58,0,1,1,207.15,0v904.7l380.5,380.5a103.58,103.58,0,0,1-73.23,176.81Z"/></svg>