<svg id="Layer_1" data-name="Layer 1" xmlns="http://www.w3.org/2000/svg" viewBox="0 0 4000 4000"><defs><style>.cls-1{fill:#fff;}</style></defs><path class="cls-1" d="M2000,3404.19a95.52,95.52,0,0,1-79.63-42.75L1012,1990.36c-123.14-185.87-191.85-399.11-198.7-616.66-6.44-204.84,41.3-410.32,138.06-594.2,96.31-183,237.69-337.9,408.85-447.88C1542.13,214.73,1755.53,151,1977.32,147.23c15.1-.25,30.26-.25,45.33,0,221.81,3.74,435.21,67.5,617.14,184.39,171.16,110,312.54,264.86,408.85,447.88,96.76,183.89,144.5,389.36,138.06,594.2-6.85,217.55-75.56,430.79-198.7,616.66L2079.62,3361.44A95.51,95.51,0,0,1,2000,3404.19ZM1171.23,1884.85,2000,3135.76l828.76-1250.91c204.4-308.5,223.4-688.46,50.84-1016.39-171.46-325.83-493-524-860.15-530.24-12.93-.21-26-.21-38.92,0-367.13,6.19-688.68,204.41-860.14,530.24C947.83,1196.39,966.83,1576.35,1171.23,1884.85Z"/><path class="cls-1" d="M2000,1871.13c-298,0-540.44-242.44-540.44-540.43S1702,790.27,2000,790.27s540.42,242.44,540.42,540.43S2298,1871.13,2000,1871.13Zm0-889.84c-192.67,0-349.42,156.74-349.42,349.41s156.75,349.41,349.42,349.41,349.4-156.75,349.4-349.41S2192.66,981.29,2000,981.29Z"/><path class="cls-1" d="M2000,3853c-590,0-1187.26-164.69-1187.26-479.46,0-92.47,54.11-225.48,311.87-334,170.87-71.94,406-121.07,662.08-138.34l12.85,190.59c-235.54,15.88-448.91,59.85-600.8,123.8-143.91,60.6-195,123-195,158,0,45.48,79.14,119.21,256,181.39,196.28,69,459.19,107.05,740.29,107.05s544-38,740.33-107.05c176.81-62.18,256-135.91,256-181.39,0-35-51.06-97.37-195-158-151.9-64-365.29-107.92-600.85-123.8l12.85-190.59c256.11,17.27,491.25,66.4,662.13,138.34,257.76,108.54,311.87,241.55,311.87,334C3187.28,3688.27,2590,3853,2000,3853Z"/></svg>