<svg id="Layer_1" data-name="Layer 1" xmlns="http://www.w3.org/2000/svg" viewBox="0 0 4000 4000"><defs><style>.cls-1{fill:#fff;}</style></defs><path class="cls-1" d="M2875.71,2363.41c-.36-20.7-.56-33.73-.54-37.12a105.12,105.12,0,0,0-1.16-16.87c-.33-2.23-.76-4.54-1.3-7-5.58-25.05-25.64-63.9-101.5-102.76l-266.27-136.39c-22.3-11.42-48.19-14.64-72.24-7.62-1.31.38-2.63.79-4,1.24a113.08,113.08,0,0,0-13.21,5.6c-16.45,8.42-82.77,95.14-128.68,123.14-59.21,36.12-140.5,10.59-167.8-1.74-65.28-29.49-111.9-60.45-165.72-112.17-202.64-194.73-303.51-294.21-281-397.89a158.53,158.53,0,0,1,24.45-55.72l62.87-85.48a190.28,190.28,0,0,0,26.65-69.58c6.61-40.12-1.84-73.94-10.59-100.37-43.46-131.26-107-337.69-172-366-1.54-.67-19.75-8.51-44.36-18.12-21.51-8.4-42.46-16-47.05-17.48-64.59-20.57-202.31,124.05-248.57,204.65-34.68,60.43-46.26,109.22-49.11,120.19-16,61.6-12.11,118.17-3.6,172,35.58,225,186.67,460.17,257.4,563,50.63,73.64,81.65,119,134.3,178.69,208.77,236.64,493.46,366.55,493.46,366.55,333.53,151.14,533.13,92.54,539.42,90.36,8.1-2.8,16-5.93,16-5.93q4.43-1.76,8.91-3.65s9.6-4.06,19.39-8.81c5-2.4,26.29-14.42,59.35-33.51A273,273,0,0,0,2875.71,2363.41Z"/><path class="cls-1" d="M456,3668.09l398.45-905.58a1504.42,1504.42,0,0,1-319-926.35c0-401.79,156.47-779.54,440.59-1063.66s661.87-440.59,1063.66-440.59S2819.25,488.38,3103.38,772.5,3544,1434.37,3544,1836.16,3387.5,2615.7,3103.38,2899.82s-661.87,440.59-1063.66,440.59c-206,0-404.74-40.57-591.39-120.69Zm1583.69-3141c-349.67,0-678.41,136.17-925.67,383.43s-383.44,576-383.44,925.67c0,310.7,110.64,611.75,311.53,847.72l39.65,46.56-242,550.13,609-275.16,40.56,18.87c172.59,80.28,357.8,121,550.47,121,349.66,0,678.4-136.17,925.67-383.43s383.43-576,383.43-925.67-136.17-678.41-383.43-925.67S2389.38,527.06,2039.72,527.06Z"/></svg>